<svg width="28" height="26" viewBox="0 0 28 26" fill="none" xmlns="http://www.w3.org/2000/svg">
<path opacity="0.3" d="M13.5993 11.6576H15.8653V13.7772H13.5993V15.8967H15.8653V18.0163H13.5993V20.1359H22.6634V9.53802H13.5993V11.6576ZM18.1313 11.6576H20.3974V13.7772H18.1313V11.6576ZM18.1313 15.8967H20.3974V18.0163H18.1313V15.8967Z" fill="black"/>
<path d="M18.1313 15.8967H20.3973V18.0163H18.1313V15.8967ZM18.1313 11.6576H20.3973V13.7771H18.1313V11.6576ZM24.9293 7.41845H13.5993V3.17932H2.26917V22.2554H24.9293V7.41845ZM6.8012 20.1358H4.53518V18.0163H6.8012V20.1358ZM6.8012 15.8967H4.53518V13.7771H6.8012V15.8967ZM6.8012 11.6576H4.53518V9.53802H6.8012V11.6576ZM6.8012 7.41845H4.53518V5.29889H6.8012V7.41845ZM11.3332 20.1358H9.06722V18.0163H11.3332V20.1358ZM11.3332 15.8967H9.06722V13.7771H11.3332V15.8967ZM11.3332 11.6576H9.06722V9.53802H11.3332V11.6576ZM11.3332 7.41845H9.06722V5.29889H11.3332V7.41845ZM22.6633 20.1358H13.5993V18.0163H15.8653V15.8967H13.5993V13.7771H15.8653V11.6576H13.5993V9.53802H22.6633V20.1358Z" fill="black"/>
</svg>
