<svg width="120" height="110" viewBox="0 0 120 110" fill="none" xmlns="http://www.w3.org/2000/svg">
<path d="M116.414 99.561L108.181 77H99.1474L104.164 99H15.8391L20.8558 77H11.8221L3.58345 99.561C1.49366 105.303 5.19746 110 11.8221 110H108.181C114.806 110 118.51 105.303 116.414 99.561ZM90.1138 27.5C90.1138 20.2065 86.9412 13.2118 81.2941 8.05456C75.647 2.89731 67.9878 0 60.0016 0C52.0154 0 44.3562 2.89731 38.7091 8.05456C33.062 13.2118 29.8894 20.2065 29.8894 27.5C29.8894 53.7625 60.0016 82.5 60.0016 82.5C60.0016 82.5 90.1138 53.7625 90.1138 27.5ZM43.741 27.83C43.741 19.6295 51.0161 12.9855 60.0016 12.9855C64.3134 12.9855 68.4485 14.5498 71.4974 17.3342C74.5463 20.1186 76.2592 23.895 76.2592 27.8328C76.2592 31.7705 74.5463 35.5469 71.4974 38.3313C68.4485 41.1157 64.3134 42.68 60.0016 42.68C55.689 42.68 51.5531 41.1155 48.5036 38.3305C45.4542 35.5456 43.741 31.7685 43.741 27.83Z" fill="#CECECE"/>
</svg>
