<svg width="28" height="26" viewBox="0 0 28 26" fill="none" xmlns="http://www.w3.org/2000/svg">
<path opacity="0.3" d="M17.7939 9.53802H4.51501L3.83521 12.7174H18.4737L17.7939 9.53802Z" fill="black"/>
<path d="M2.65687 4.23914H19.652V6.3587H2.65687V4.23914ZM17.386 18.0163H19.652V14.837H20.785V12.7174L19.652 7.41848H2.65687L1.52386 12.7174V14.837H2.65687V21.1957H12.8539V14.837H17.386V18.0163ZM10.5879 19.0761H4.92289V14.837H10.5879V19.0761ZM3.8352 12.7174L4.51501 9.53805H17.7939L18.4737 12.7174H3.8352Z" fill="black"/>
<path d="M23.051 19.0761V15.8967H20.785V19.0761H17.386V21.1956H20.785V24.375H23.051V21.1956H26.4501V19.0761H23.051Z" fill="black"/>
</svg>
