<svg width="28" height="26" viewBox="0 0 28 26" fill="none" xmlns="http://www.w3.org/2000/svg">
<path opacity="0.3" d="M21.8501 20.5068L19.4141 18.2282V14.8369H20.5471V17.7937L22.6432 19.7543L21.8501 20.5068ZM19.9806 10.5978C20.3658 10.5978 20.7397 10.6296 21.1136 10.6826V5.29889H18.8476V8.47823H9.78353V5.29889H7.51752V21.1956H12.82C12.2452 20.0654 11.9856 18.8174 12.0656 17.568C12.1455 16.3186 12.5624 15.1085 13.2772 14.0505C13.9921 12.9925 14.9818 12.121 16.1539 11.5172C17.326 10.9135 18.6425 10.5972 19.9806 10.5978ZM14.3156 5.29889C13.6924 5.29889 13.1826 4.82198 13.1826 4.2391C13.1826 3.65622 13.6924 3.17932 14.3156 3.17932C14.9387 3.17932 15.4486 3.65622 15.4486 4.2391C15.4486 4.82198 14.9387 5.29889 14.3156 5.29889Z" fill="black"/>
<path d="M19.9806 12.7174C16.8535 12.7174 14.3156 15.0913 14.3156 18.0163C14.3156 20.9413 16.8535 23.3152 19.9806 23.3152C23.1077 23.3152 25.6457 20.9413 25.6457 18.0163C25.6457 15.0913 23.1077 12.7174 19.9806 12.7174ZM21.8501 20.5068L19.4141 18.2282V14.8369H20.5471V17.7937L22.6432 19.7543L21.8501 20.5068ZM21.1136 3.17932H17.5107C17.0348 1.94997 15.7885 1.05975 14.3156 1.05975C12.8427 1.05975 11.5964 1.94997 11.1205 3.17932H7.51754C6.27123 3.17932 5.25153 4.13312 5.25153 5.29888V21.1956C5.25153 22.3614 6.27123 23.3152 7.51754 23.3152H14.4402C13.7699 22.7066 13.2246 21.9882 12.8314 21.1956H7.51754V5.29888H9.78356V8.47823H18.8476V5.29888H21.1136V10.6826C21.9181 10.7886 22.6772 11.0111 23.3797 11.3184V5.29888C23.3797 4.13312 22.36 3.17932 21.1136 3.17932ZM14.3156 5.29888C13.6924 5.29888 13.1826 4.82198 13.1826 4.2391C13.1826 3.65622 13.6924 3.17932 14.3156 3.17932C14.9388 3.17932 15.4486 3.65622 15.4486 4.2391C15.4486 4.82198 14.9388 5.29888 14.3156 5.29888Z" fill="black"/>
</svg>
