<svg width="36" height="36" viewBox="0 0 36 36" fill="none" xmlns="http://www.w3.org/2000/svg">
<path d="M18 27.36C14.328 27.36 11.016 25.2 9.50399 21.888L10.8 21.312C12.096 24.12 14.904 25.92 18 25.92C22.392 25.92 25.92 22.392 25.92 18C25.92 13.608 22.392 10.08 18 10.08C14.688 10.08 11.88 12.096 10.728 15.336L9.35999 14.832C10.728 11.088 14.112 8.64 18 8.64C23.184 8.64 27.36 12.816 27.36 18C27.36 23.184 23.184 27.36 18 27.36Z" fill="#F04E52"/>
<path d="M14.4 15.84H8.64001V10.08H10.08V14.4H14.4V15.84Z" fill="#F04E52"/>
</svg>
