<svg width="28" height="26" viewBox="0 0 28 26" fill="none" xmlns="http://www.w3.org/2000/svg">
<path opacity="0.3" d="M5.75751 20.1358H21.6196V5.29889H5.75751V20.1358ZM12.5556 7.41845H19.3536V9.53802H12.5556V7.41845ZM12.5556 11.6576H19.3536V13.7772H12.5556V11.6576ZM12.5556 15.8967H19.3536V18.0163H12.5556V15.8967ZM8.02352 7.41845H10.2895V9.53802H8.02352V7.41845ZM8.02352 11.6576H10.2895V13.7772H8.02352V11.6576ZM8.02352 15.8967H10.2895V18.0163H8.02352V15.8967Z" fill="black"/>
<path d="M12.5556 7.41845H19.3536V9.53802H12.5556V7.41845ZM12.5556 11.6576H19.3536V13.7771H12.5556V11.6576ZM12.5556 15.8967H19.3536V18.0163H12.5556V15.8967ZM8.02355 7.41845H10.2896V9.53802H8.02355V7.41845ZM8.02355 11.6576H10.2896V13.7771H8.02355V11.6576ZM8.02355 15.8967H10.2896V18.0163H8.02355V15.8967ZM22.866 3.17932H4.51122C3.94472 3.17932 3.49152 3.60323 3.49152 4.13313V21.3016C3.49152 21.7255 3.94472 22.2554 4.51122 22.2554H22.866C23.3192 22.2554 23.8857 21.7255 23.8857 21.3016V4.13313C23.8857 3.60323 23.3192 3.17932 22.866 3.17932ZM21.6197 20.1358H5.75753V5.29889H21.6197V20.1358Z" fill="black"/>
</svg>
